<svg xmlns="http://www.w3.org/2000/svg" viewBox="0 0 57.21 57.411" width="57.21" height="57.411">
<g transform="translate(2 35.661)" fill="black">
<path transform="translate(20.904 -18.72) scale(0.022 -0.022)" d="M432 0L432 36C340 36 312 52 312 103L312 667L269 667L84 616L84 576C110 583 154 590 175 590C203 590 212 575 212 539L212 103C212 52 189 36 93 36L93 0Z"/>
<path transform="translate(0 18.72) scale(0.022 -0.022)" d="M353 321L347 321L333 385C323 421 304 478 283 513L260 513L106 501L106 463C106 463 118 464 133 464C201 466 225 439 255 348L286 249L208 140C165 80 149 80 142 80C142 80 142 80 142 80C129 80 93 93 71 93C48 93 30 67 30 44C30 18 47 -10 95 -10C159 -10 195 40 231 95L302 207L307 207L329 109C347 31 370 -10 428 -10C506 -10 549 63 579 110L553 130C522 91 504 68 477 68C445 68 422 100 392 201L367 275L434 384C451 411 465 427 494 427C505 427 537 415 551 415C579 415 602 442 602 469C602 500 589 517 546 517C480 517 437 466 405 413Z"/>
<path transform="translate(19.202 18.72) scale(0.022 -0.022)" d="M698 227L698 305L428 305L428 579L345 579L345 305L74 305L74 227L345 227L345 -46L428 -46L428 227Z"/>
<path transform="translate(41.472 18.72) scale(0.022 -0.022)" d="M489 174L454 174C428 109 416 87 359 87L229 87L151 83L151 90L276 211C387 320 457 393 457 491C457 604 372 671 253 671C150 671 79 614 46 521L73 508C110 573 156 600 228 600C306 600 352 549 352 478C352 365 299 305 187 193L45 49L45 0L455 0Z"/>
<rect x="0" y="-9.344" width="53.21" height="2.176"/>
</g>
</svg>
